<?xml version="1.0" encoding="utf-8"?>
<!-- Generator: Adobe Illustrator 27.5.0, SVG Export Plug-In . SVG Version: 6.00 Build 0)  -->
<svg version="1.1" id="Capa_2" xmlns="http://www.w3.org/2000/svg" xmlns:xlink="http://www.w3.org/1999/xlink" x="0px" y="0px"
	 viewBox="0 0 2122 2122" style="enable-background:new 0 0 2122 2122;" xml:space="preserve">
<path style="fill:#6FAE4D;" d="M1078.272,705.819l147.772,106.885l147.773,106.885c36.4,26.329,94.477,4.511,104.541-39.271
	l81.699-355.486c10.062-43.782-35.438-76.693-81.9-59.239l-47.109,17.697l-142.701-204.13H892.568L560.743,738.868L833.35,916.922
	l247.627-358.991l30.648,45.352l-10.713,4.024C1054.45,624.762,1041.871,679.49,1078.272,705.819z"/>
<path style="fill:#6FAE4D;" d="M1909.607,1395.594l-185.549-497.987l-299.469,127.815l148.032,371.595l-91.703,0.38l0.035-22.704
	c0.079-49.633-46.682-80.727-84.168-55.97l-152.182,100.506l-152.184,100.506c-37.487,24.757-37.584,86.798-0.177,111.673
	l303.731,201.972c37.409,24.875,84.266-6.071,84.345-55.703l0.077-48.494l209.408-4.459l8.374-12.538v0L1909.607,1395.594z"/>
<path style="fill:#6FAE4D;" d="M613.329,1326.683l21.904,7.914c46.677,16.865,91.759-16.617,81.145-60.269l-86.185-354.425
	c-10.614-43.651-68.963-64.734-105.028-37.948L378.754,990.698l-146.409,108.744c-36.066,26.786-22.796,81.352,23.883,98.216
	l45.608,16.479l-66.65,198.567l232.125,318.873h528.665v-313.027H580.198L613.329,1326.683z"/>
<polygon style="fill:#397B32;" points="892.597,279.16 892.568,279.16 560.743,738.868 833.35,916.922 1080.977,557.931 
	1062.01,529.864 "/>
<polygon style="fill:#397B32;" points="1724.058,897.607 1424.589,1025.422 1572.622,1397.017 1909.589,1395.619 1909.607,1395.594 
	"/>
<polygon style="fill:#397B32;" points="467.31,1731.578 995.976,1731.578 995.976,1418.552 580.198,1418.552 "/>
<polygon style="fill:#509636;" points="824.59,811.612 560.743,738.868 833.35,916.922 1080.977,557.931 1062.01,529.864 "/>
<polygon style="fill:#509636;" points="1619.667,1335.221 1424.589,1025.422 1572.622,1397.017 1909.589,1395.619 
	1909.607,1395.594 "/>
<polygon style="fill:#509636;" points="467.31,1731.578 995.976,1731.578 995.976,1418.552 926.39,1653.08 "/>
<path style="fill:#A2CA72;" d="M524.594,917.093l-229.55,180.11c-4.906,3.849-5.771,11.013-1.921,15.919
	c3.849,4.907,11.013,5.771,15.919,1.922l229.55-180.111c4.906-3.849,5.771-11.013,1.921-15.919
	C536.664,914.108,529.5,913.243,524.594,917.093z"/>
<path style="fill:#A2CA72;" d="M1442.319,836.372c6.06,1.475,12.224-2.276,13.699-8.335l68.996-283.501
	c1.474-6.059-2.276-12.223-8.336-13.698c-6.06-1.475-12.224,2.276-13.698,8.336l-68.996,283.501
	C1432.509,828.733,1436.26,834.897,1442.319,836.372z"/>
<path style="fill:#A2CA72;" d="M1392.349,1755.821l-245.571-157.569c-5.249-3.368-12.298-1.829-15.666,3.42
	c-3.368,5.249-1.829,12.299,3.419,15.666l245.572,157.569c5.248,3.367,12.298,1.828,15.666-3.42
	C1399.136,1766.238,1397.598,1759.188,1392.349,1755.821z"/>
</svg>
